<?xml version="1.0" encoding="utf-8"?>
<!-- Generator: Adobe Illustrator 27.8.1, SVG Export Plug-In . SVG Version: 6.00 Build 0)  -->
<svg version="1.1" id="Layer_1" xmlns="http://www.w3.org/2000/svg" xmlns:xlink="http://www.w3.org/1999/xlink" x="0px" y="0px"
	 viewBox="0 0 400 300" style="enable-background:new 0 0 400 300;" xml:space="preserve">
<style type="text/css">
	.st0{fill:#FCDCE5;}
</style>
<polygon class="st0" points="-0.2,206.8 198.1,153.7 52.2,299.6 53.6,299.6 198.8,154.4 159.9,299.6 160.9,299.6 199.8,154.7 
	238.6,299.6 239.7,299.6 200.8,154.4 346,299.6 347.4,299.6 201.5,153.7 399.8,206.8 399.8,205.8 201.7,152.7 399.8,99.7 
	399.8,98.6 201.5,151.8 353.6,-0.4 352.2,-0.4 200.8,151.1 241.3,-0.4 240.3,-0.4 199.8,150.8 159.3,-0.4 158.2,-0.4 198.8,151.1 
	47.4,-0.4 46,-0.4 198.1,151.8 -0.2,98.6 -0.2,99.7 197.9,152.7 -0.2,205.8 "/>
</svg>
