<?xml version="1.0" encoding="utf-8"?>
<!-- Generator: Adobe Illustrator 27.8.1, SVG Export Plug-In . SVG Version: 6.00 Build 0)  -->
<svg version="1.1" id="Layer_1" xmlns="http://www.w3.org/2000/svg" xmlns:xlink="http://www.w3.org/1999/xlink" x="0px" y="0px"
	 viewBox="0 0 400 300" style="enable-background:new 0 0 400 300;" xml:space="preserve">
<style type="text/css">
	.st0{opacity:1.000000e-02;fill:#FCDDE5;}
	.st1{fill:#FCDCE5;}
</style>
<polygon class="st0" points="-0.2,206.8 198.1,153.7 52.2,299.6 53.6,299.6 198.8,154.4 159.9,299.6 160.9,299.6 199.8,154.7 
	238.6,299.6 239.7,299.6 200.8,154.4 346,299.6 347.4,299.6 201.5,153.7 399.8,206.8 399.8,205.8 201.7,152.7 399.8,99.7 
	399.8,98.6 201.5,151.8 353.6,-0.4 352.2,-0.4 200.8,151.1 241.3,-0.4 240.3,-0.4 199.8,150.8 159.3,-0.4 158.2,-0.4 198.8,151.1 
	47.4,-0.4 46,-0.4 198.1,151.8 -0.2,98.6 -0.2,99.7 197.9,152.7 -0.2,205.8 "/>
<path class="st1" d="M312.2,122.1l-110.7,29.7l81-81c-0.2-0.2-0.5-0.5-0.7-0.7l-81,81l29.5-110.2c-0.3-0.1-0.6-0.2-1-0.2
	l-29.5,110.2L170.5,41.4c-0.3,0.1-0.6,0.2-1,0.3l29.3,109.4l-79.3-79.3c-0.2,0.2-0.5,0.5-0.7,0.7l79.3,79.3L90.5,122.9
	c-0.1,0.3-0.2,0.6-0.2,1l107.6,28.8L90.8,181.4c0.1,0.3,0.2,0.6,0.3,1l107.1-28.7l-78.4,78.4c0.2,0.2,0.5,0.5,0.7,0.7l78.4-78.4
	L170,262c0.3,0.1,0.6,0.2,1,0.3l28.8-107.6l29,108.4c0.3-0.1,0.6-0.2,1-0.2l-29.1-108.4l80,80c0.2-0.2,0.5-0.5,0.7-0.7l-80.1-80.1
	l110.2,29.5c0.1-0.3,0.2-0.6,0.3-1l-110.2-29.5l110.7-29.7C312.3,122.7,312.3,122.4,312.2,122.1z"/>
<circle class="st1" cx="311.9" cy="182.8" r="4.3"/>
<circle class="st1" cx="281.2" cy="234.3" r="4.3"/>
<circle class="st1" cx="229.4" cy="262.8" r="4.3"/>
<circle class="st1" cx="170.4" cy="262.1" r="4.3"/>
<circle class="st1" cx="119.9" cy="232.5" r="4.3"/>
<circle class="st1" cx="90.8" cy="182" r="4.3"/>
</svg>
